<svg id="Layer_1" data-name="Layer 1" xmlns="http://www.w3.org/2000/svg" viewBox="0 0 348 107"><defs><style>.cls-1{fill:#8b0304;}.cls-2,.cls-3{fill:#58595b;}.cls-3{font-size:22.3px;font-family:MyriadPro-Regular, Myriad Pro;letter-spacing:0.27em;}.cls-4{letter-spacing:0.3em;}.cls-5{letter-spacing:0.29em;}.cls-6{letter-spacing:0.29em;}.cls-7{letter-spacing:0.3em;}</style></defs><polygon class="cls-1" points="93.42 38.34 64.7 49.66 35.98 38.34 11.15 48.72 11.15 57.06 36.05 48.69 64.7 57.97 93.34 48.69 118.27 57.06 118.27 48.72 93.42 38.34"/><polygon class="cls-1" points="93.19 58.97 64.7 65.98 36.22 58.97 11.15 65.37 11.15 73.83 36.31 69.31 64.73 74.3 93.11 69.31 118.27 73.83 118.27 65.37 93.19 58.97"/><polygon class="cls-1" points="118.27 81.53 93.58 78.89 64.7 81.63 35.82 78.89 11.15 81.55 11.15 89.31 118.27 89.31 118.27 81.53"/><polygon class="cls-1" points="93.59 17.68 64.7 33.28 35.82 17.68 11.15 32.01 11.15 40.3 35.8 28.26 64.7 41.46 93.5 28.29 118.27 40.3 118.27 32.01 93.59 17.68"/><polygon class="cls-1" points="144.28 28.72 144.28 17.79 140.12 28.72 138.24 28.72 134.05 17.79 134.05 28.72 129.78 28.72 129.78 12.19 135.71 12.19 139.18 21.31 142.62 12.19 148.55 12.19 148.55 28.72 144.28 28.72"/><path class="cls-1" d="M158.69,16.4l-2.11,6.22h4.19Zm4.06,12.32-.81-2.38h-6.52l-.82,2.38h-4.84L156,12.19h5.38l6.22,16.53Z"/><path class="cls-1" d="M178.49,17.67a1.81,1.81,0,0,0-2.05-1.76h-3.37v3.54h3.37a1.82,1.82,0,0,0,2.05-1.78m-.46,11-2.78-5.55h-2.18v5.55H168.8V12.19h8.28c3.67,0,5.76,2.43,5.76,5.5a5,5,0,0,1-3.3,5l3.37,6.07Z"/><path class="cls-1" d="M192.36,16.4l-2.11,6.22h4.19Zm4.06,12.32-.82-2.38h-6.52l-.81,2.38h-4.84l6.22-16.53H195l6.23,16.53Z"/><polygon class="cls-1" points="204.63 28.72 204.63 15.91 199.99 15.91 199.99 12.19 213.5 12.19 213.5 15.91 208.89 15.91 208.89 28.72 204.63 28.72"/><polygon class="cls-1" points="226.67 28.72 226.67 22.08 219.8 22.08 219.8 28.72 215.54 28.72 215.54 12.19 219.8 12.19 219.8 18.36 226.67 18.36 226.67 12.19 230.93 12.19 230.93 28.72 226.67 28.72"/><path class="cls-1" d="M246.4,20.47a4.51,4.51,0,1,0-9,0,4.51,4.51,0,1,0,9,0m-13.33,0c0-5,3.79-8.55,8.84-8.55s8.83,3.52,8.83,8.55S247,29,241.91,29s-8.84-3.52-8.84-8.55"/><polygon class="cls-1" points="264.15 28.72 257.16 19.16 257.16 28.72 252.9 28.72 252.9 12.19 257.29 12.19 263.98 21.29 263.98 12.19 268.27 12.19 268.27 28.72 264.15 28.72"/><polygon class="cls-2" points="159.93 69.26 159.93 34.28 155.4 34.28 155.4 61.6 134.42 34.28 129.78 34.28 129.78 69.26 134.32 69.26 134.32 41.36 155.56 69.26 159.93 69.26"/><path class="cls-2" d="M188.39,55H171.07c.22-3.89,3-8.45,8.64-8.45A8.37,8.37,0,0,1,188.39,55M180.2,69.9A14.72,14.72,0,0,0,190.69,66l-2-2.57a11.76,11.76,0,0,1-8.13,3.19,9.13,9.13,0,0,1-9.51-8.76h21.36v-1c0-7.61-4.7-13.59-12.67-13.59a12.9,12.9,0,0,0-13,13.27c0,7.92,5.62,13.33,13.44,13.33"/><polygon class="cls-2" points="220.89 69.26 210.72 56.26 220.29 43.93 215.53 43.93 208.22 53.58 200.9 43.93 196.15 43.93 205.71 56.26 195.6 69.26 200.29 69.26 208.22 58.88 216.14 69.26 220.89 69.26"/><polygon class="cls-2" points="244.43 69.26 244.43 65.86 229.57 65.86 244.21 46.92 244.21 43.93 224.33 43.93 224.33 47.39 238.86 47.39 224.33 66.22 224.33 69.26 244.43 69.26"/><path class="cls-2" d="M262.89,66.38c-5.62,0-8.79-4.61-8.79-9.81s3.17-9.75,8.79-9.75,8.74,4.61,8.74,9.75-3.11,9.81-8.74,9.81m0,3.52c8,0,13.06-6,13.06-13.33s-5-13.27-13.06-13.27-13,5.93-13,13.27,5,13.33,13,13.33"/><path class="cls-2" d="M304.51,69.26V51.49c0-5.51-2.89-8.19-8.41-8.19a13.29,13.29,0,0,0-9.39,4.3V43.93h-4.1V69.26h4.1V50.75a10.33,10.33,0,0,1,7.81-3.93c3.55,0,5.9,1.41,5.9,5.87V69.26Z"/><path class="cls-2" d="M332.81,55H315.49c.22-3.89,3-8.45,8.63-8.45A8.38,8.38,0,0,1,332.81,55m-8.2,14.9A14.7,14.7,0,0,0,335.1,66l-2-2.57A11.78,11.78,0,0,1,325,66.64a9.13,9.13,0,0,1-9.5-8.76h21.36v-1c0-7.61-4.7-13.59-12.67-13.59a12.9,12.9,0,0,0-13,13.27c0,7.92,5.62,13.33,13.43,13.33"/><text class="cls-3" transform="translate(129.78 92.16)">P<tspan class="cls-4" x="17.98" y="0">a</tspan><tspan class="cls-5" x="35.41" y="0">n</tspan><tspan class="cls-6" x="54.19" y="0">v</tspan><tspan class="cls-7" x="71.39" y="0">el</tspan></text></svg>